<svg xmlns="http://www.w3.org/2000/svg" viewBox="0 0 44.45 8.54"><defs><style>.cls-1{fill:#fff;}.cls-2{fill:#f30;}</style></defs><title>logo</title><g id="Layer_2" data-name="Layer 2"><g id="Capa_5" data-name="Capa 5"><path class="cls-1" d="M3.17,4.07H2.54a.11.11,0,0,0-.11.11V5.7H.84V4.18a.1.1,0,0,0-.1-.11H.11A.11.11,0,0,0,0,4.18V8.35a.11.11,0,0,0,.11.11H.74a.1.1,0,0,0,.1-.11V6.51H2.43V8.35a.11.11,0,0,0,.11.11h.63a.11.11,0,0,0,.1-.11V4.18A.11.11,0,0,0,3.17,4.07Z"/><path class="cls-2" d="M7.83,8.28l-2-4.41a.12.12,0,0,0-.1-.06.09.09,0,0,0-.09.06L3.59,8.31a.12.12,0,0,0,0,.1.11.11,0,0,0,.09.05h.68a.1.1,0,0,0,.09-.06l.31-.67H6.66L7,8.4a.12.12,0,0,0,.1.06h.69a.11.11,0,0,0,.11-.11A.11.11,0,0,0,7.83,8.28ZM5.74,5.59l.58,1.35H5.12Z"/><path class="cls-1" d="M12,6.07H10.22a.1.1,0,0,0-.1.11v.59a.1.1,0,0,0,.1.11h.92a1.11,1.11,0,0,1-.36.57,1.16,1.16,0,0,1-.77.28,1.4,1.4,0,0,1-.94-.39,1.36,1.36,0,0,1-.46-1.07A1.43,1.43,0,0,1,10.06,4.8a1.43,1.43,0,0,1,1.17.64.1.1,0,0,0,.07,0s.06,0,.09,0L11.83,5a.09.09,0,0,0,0-.14A2.8,2.8,0,0,0,11,4.2a2.3,2.3,0,0,0-2.58.46,2.27,2.27,0,0,0,0,3.21A2.13,2.13,0,0,0,10,8.54a2,2,0,0,0,1.56-.69,2,2,0,0,0,.39-.67,2.85,2.85,0,0,0,.11-.86V6.18A.1.1,0,0,0,12,6.07Z"/><path class="cls-1" d="M29.23,6.31a1.83,1.83,0,0,0-.78-.54L28,5.6c-.39-.16-.39-.33-.39-.39a.37.37,0,0,1,.14-.29.57.57,0,0,1,.37-.12.52.52,0,0,1,.29.07.7.7,0,0,1,.23.29.18.18,0,0,0,.07,0,.11.11,0,0,0,.08,0l.51-.3a.1.1,0,0,0,0-.14A1.36,1.36,0,0,0,28.15,4a1.38,1.38,0,0,0-1,.35,1.08,1.08,0,0,0-.4.86,1.26,1.26,0,0,0,.92,1.16l.4.17a2.09,2.09,0,0,1,.26.13.73.73,0,0,1,.16.14.6.6,0,0,1,.09.15,1.11,1.11,0,0,1,0,.19.59.59,0,0,1-.16.43.54.54,0,0,1-.41.16.56.56,0,0,1-.49-.23,1,1,0,0,1-.13-.45.12.12,0,0,0,0-.08.11.11,0,0,0-.08,0l-.64.14a.11.11,0,0,0-.09.12,1.62,1.62,0,0,0,.47,1,1.36,1.36,0,0,0,1,.35,1.44,1.44,0,0,0,1-.4,1.41,1.41,0,0,0,.41-1A1.18,1.18,0,0,0,29.23,6.31Z"/><path class="cls-1" d="M33.81,4.8a1.63,1.63,0,0,1,1.06.43.11.11,0,0,0,.11,0,.11.11,0,0,0,.06-.1V4.4a.12.12,0,0,0,0-.09A2.26,2.26,0,0,0,33.85,4a2.22,2.22,0,0,0-1.76.8,2.25,2.25,0,0,0-.55,1.49,2.19,2.19,0,0,0,.66,1.6,2.22,2.22,0,0,0,1.6.65A2.29,2.29,0,0,0,35,8.21a.09.09,0,0,0,0-.09V7.36A.09.09,0,0,0,35,7.27a.09.09,0,0,0-.11,0l-.28.22-.26.13a1.15,1.15,0,0,1-.52.1,1.37,1.37,0,0,1-1-.42,1.39,1.39,0,0,1-.41-1,1.43,1.43,0,0,1,.41-1A1.34,1.34,0,0,1,33.81,4.8Z"/><rect class="cls-2" x="35.74" y="4.07" width="0.84" height="4.39" rx="0.11"/><path class="cls-1" d="M44.34,4.88a.11.11,0,0,0,.11-.11V4.18a.11.11,0,0,0-.11-.11H42a.11.11,0,0,0-.11.11V8.35a.11.11,0,0,0,.11.11h2.3a.11.11,0,0,0,.11-.11V7.76a.11.11,0,0,0-.11-.11H42.77V6.47h1.52a.11.11,0,0,0,.11-.1v-.6a.1.1,0,0,0-.11-.1H42.77V4.88Z"/><path class="cls-1" d="M16.21,8.3l-2-4.41a.1.1,0,0,0-.09-.07c-.05,0-.08,0-.1.07L12,8.32a.12.12,0,0,0,0,.1.11.11,0,0,0,.09.05h.68a.11.11,0,0,0,.1-.06l.3-.67H15l.3.67a.11.11,0,0,0,.1.06h.69a.11.11,0,0,0,.11-.1A.09.09,0,0,0,16.21,8.3ZM14.12,5.6,14.71,7H13.5Z"/><path class="cls-1" d="M41,4.07h-.63a.11.11,0,0,0-.11.11V6.81L37.68,4.07a.11.11,0,0,0-.08,0h-.24a.11.11,0,0,0-.1.11v4.2a.11.11,0,0,0,.1.11H38a.11.11,0,0,0,.11-.11V5.7l2.62,2.73a.11.11,0,0,0,.07,0H41a.1.1,0,0,0,.1-.11V4.18A.1.1,0,0,0,41,4.07Z"/><path class="cls-2" d="M21.31,4.16a.11.11,0,0,0-.11-.11h-.63a.1.1,0,0,0-.09.06L18.93,6.89,17.34,4.11a.1.1,0,0,0-.09-.06h-.6a.11.11,0,0,0-.11.11l0,4.19a.12.12,0,0,0,0,.08.09.09,0,0,0,.07,0h.65a.11.11,0,0,0,.11-.11V6.21l1.37,2.21a.11.11,0,0,0,.09.05H19a.11.11,0,0,0,.09-.05l1.37-2.21V8.35a.1.1,0,0,0,.11.11h.64a.1.1,0,0,0,.11-.11Z"/><circle class="cls-2" cx="16.93" cy="3.27" r="0.64"/><circle class="cls-2" cx="20.83" cy="3.27" r="0.64"/><circle class="cls-2" cx="36.16" cy="3.27" r="0.64"/><path class="cls-2" d="M8.59,1.87a0,0,0,0,0-.05,0l-.94.77v-.8a0,0,0,0,0,0,0H7.1A1,1,0,0,0,7.56,1,1,1,0,1,0,6,1.81H4.94a1,1,0,1,0-1.06,0h-.1a0,0,0,0,0,0,0v2.2a0,0,0,0,0,0,0H7.56a0,0,0,0,0,0,0V3.26L8.54,4a0,0,0,0,0,.05,0,.05.05,0,0,0,0,0V1.91A.05.05,0,0,0,8.59,1.87Z"/><path class="cls-2" d="M25.72,4.65a2.28,2.28,0,0,0-3.23,0,2.15,2.15,0,0,0-.68,1.59,2.15,2.15,0,0,0,.75,1.7,2.31,2.31,0,0,0,3.15-.08,2.14,2.14,0,0,0,.68-1.6A2.24,2.24,0,0,0,25.72,4.65ZM22.77,6.4a.49.49,0,0,1-.35-.6A.5.5,0,0,1,23,5.45a.49.49,0,0,1,.34.6A.49.49,0,0,1,22.77,6.4Zm1.47,1.19A.49.49,0,1,1,23.9,7,.48.48,0,0,1,24.24,7.59Zm.06-2.07a.49.49,0,1,1,.6-.34A.49.49,0,0,1,24.3,5.52Zm.88,1.54a.5.5,0,0,1-.35-.61.49.49,0,0,1,.6-.34.49.49,0,0,1,.35.6A.49.49,0,0,1,25.18,7.06Z"/></g></g></svg>